<?xml version="1.0" encoding="UTF-8" standalone="no"?><!DOCTYPE svg PUBLIC "-//W3C//DTD SVG 1.1//EN" "http://www.w3.org/Graphics/SVG/1.1/DTD/svg11.dtd"><svg width="100%" height="100%" viewBox="0 0 18 18" version="1.1" xmlns="http://www.w3.org/2000/svg"  xml:space="preserve"  style="fill-rule:evenodd;clip-rule:evenodd;stroke-linejoin:round;stroke-miterlimit:2;"><path id="download_icon" d="M0,16.595l0,-15.19c0,-0.776 0.629,-1.405 1.405,-1.405l15.19,0c0.776,0 1.405,0.629 1.405,1.405l0,15.19c0,0.776 -0.629,1.405 -1.405,1.405l-4.91,0l-0.002,-0c-0.268,-0.062 -5.091,-0.064 -5.371,-0.003l-0.017,0.003l-4.89,0c-0.776,0 -1.405,-0.629 -1.405,-1.405Zm5.192,-0.134l7.616,-0c0.415,-0 0.75,-0.336 0.75,-0.75c0,-0.415 -0.335,-0.75 -0.75,-0.75l-7.616,-0c-0.415,-0 -0.75,0.335 -0.75,0.75c-0,0.414 0.335,0.75 0.75,0.75Zm5.924,-7.382l-0,-6.292c-0,-0.275 -0.228,-0.498 -0.508,-0.498l-3.216,0c-0.28,0 -0.508,0.223 -0.508,0.498l0,6.292l-2.519,-0c-0.14,-0 -0.265,0.084 -0.315,0.211c-0.051,0.127 -0.017,0.272 0.085,0.364l4.635,4.191c0.13,0.117 0.33,0.117 0.46,0l4.635,-4.191c0.102,-0.092 0.136,-0.237 0.085,-0.364c-0.05,-0.127 -0.175,-0.211 -0.315,-0.211l-2.519,-0Z" style="fill:#fff;"/></svg>