<?xml version="1.0" encoding="UTF-8" standalone="no"?><!DOCTYPE svg PUBLIC "-//W3C//DTD SVG 1.1//EN" "http://www.w3.org/Graphics/SVG/1.1/DTD/svg11.dtd"><svg width="100%" height="100%" viewBox="0 0 11 15" version="1.1" xmlns="http://www.w3.org/2000/svg"  xml:space="preserve"  style="fill-rule:evenodd;clip-rule:evenodd;stroke-linejoin:round;stroke-miterlimit:2;"><g id="download_icon_parts"><path d="M7.366,6.829l2.519,-0c0.14,-0 0.265,0.084 0.315,0.211c0.051,0.127 0.017,0.272 -0.085,0.364l-4.635,4.191c-0.13,0.117 -0.33,0.117 -0.46,0l-4.635,-4.191c-0.102,-0.092 -0.136,-0.237 -0.085,-0.364c0.05,-0.127 0.175,-0.211 0.315,-0.211l2.519,-0l0,-6.292c0,-0.275 0.228,-0.498 0.508,-0.498l3.216,0c0.28,0 0.508,0.223 0.508,0.498l-0,6.292Z" style="fill:#fff;"/><path d="M1.442,14.211c-0.415,-0 -0.75,-0.336 -0.75,-0.75c-0,-0.415 0.335,-0.75 0.75,-0.75l7.616,-0c0.415,-0 0.75,0.335 0.75,0.75c0,0.414 -0.335,0.75 -0.75,0.75l-7.616,-0Z" style="fill:#fff;"/></g></svg>