<?xml version="1.0" encoding="UTF-8" standalone="no"?><!DOCTYPE svg PUBLIC "-//W3C//DTD SVG 1.1//EN" "http://www.w3.org/Graphics/SVG/1.1/DTD/svg11.dtd"><svg width="100%" height="100%" viewBox="0 0 18 18" version="1.1" xmlns="http://www.w3.org/2000/svg"  xml:space="preserve"  style="fill-rule:evenodd;clip-rule:evenodd;stroke-linejoin:round;stroke-miterlimit:2;"><path id="github_icon" d="M0,16.595l0,-15.19c0,-0.776 0.629,-1.405 1.405,-1.405l15.19,0c0.776,0 1.405,0.629 1.405,1.405l0,15.19c0,0.776 -0.629,1.405 -1.405,1.405l-4.91,0c-0.001,-0 -0.001,-0 -0.002,-0c-0.268,-0.062 -0.433,-0.276 -0.433,-0.456c0,-0.311 0.011,-1.303 0.011,-2.538c0,-0.865 -0.281,-1.418 -0.607,-1.707c2.002,-0.23 4.106,-1.015 4.106,-4.556c0,-1.015 -0.349,-1.834 -0.922,-2.48c0.09,-0.23 0.405,-1.176 -0.09,-2.445c-0,-0 -0.754,-0.254 -2.475,0.946c-0.72,-0.208 -1.485,-0.312 -2.25,-0.312c-0.765,0 -1.53,0.104 -2.25,0.312c-1.722,-1.188 -2.475,-0.946 -2.475,-0.946c-0.495,1.269 -0.18,2.215 -0.09,2.445c-0.574,0.646 -0.923,1.477 -0.923,2.48c0,3.53 2.093,4.326 4.095,4.556c-0.259,0.231 -0.495,0.635 -0.574,1.235c-0.517,0.242 -1.796,0.625 -2.621,-0.762c-0.166,-0.278 -0.675,-0.957 -1.384,-0.946c-0.753,0.012 -0.302,0.436 0.012,0.612c0.384,0.215 0.825,1.036 0.922,1.303c0.188,0.516 0.765,1.511 3.026,1.084c0,0.773 0.012,1.5 0.012,1.719c-0,0.181 -0.181,0.392 -0.461,0.453c-0.006,0.001 -0.011,0.002 -0.017,0.003l-4.89,0c-0.776,0 -1.405,-0.629 -1.405,-1.405Z" style="fill:#fff;"/></svg>