<?xml version="1.0" encoding="UTF-8" standalone="no"?><!DOCTYPE svg PUBLIC "-//W3C//DTD SVG 1.1//EN" "http://www.w3.org/Graphics/SVG/1.1/DTD/svg11.dtd"><svg width="100%" height="100%" viewBox="0 0 18 18" version="1.1" xmlns="http://www.w3.org/2000/svg"  xml:space="preserve"  style="fill-rule:evenodd;clip-rule:evenodd;stroke-linejoin:round;stroke-miterlimit:2;"><path id="github_icon" d="M1.405,18c-0.776,0 -1.405,-0.629 -1.405,-1.405l0,-15.19c0,-0.776 0.629,-1.405 1.405,-1.405l15.19,0c0.776,0 1.405,0.629 1.405,1.405l0,15.19c0,0.776 -0.629,1.405 -1.405,1.405l-15.19,0Zm10.222,-2.25c-0,-0.306 0.011,-1.28 0.011,-2.492c0,-0.849 -0.276,-1.393 -0.596,-1.676c1.966,-0.226 4.032,-0.997 4.032,-4.474c-0,-0.996 -0.343,-1.801 -0.906,-2.435c0.088,-0.226 0.397,-1.155 -0.089,-2.401c0,0 -0.74,-0.249 -2.43,0.929c-0.707,-0.204 -1.458,-0.306 -2.209,-0.306c-0.751,-0 -1.503,0.102 -2.21,0.306c-1.69,-1.167 -2.43,-0.929 -2.43,-0.929c-0.486,1.246 -0.177,2.175 -0.088,2.401c-0.564,0.634 -0.906,1.45 -0.906,2.435c-0,3.466 2.055,4.248 4.021,4.474c-0.254,0.227 -0.486,0.623 -0.563,1.212c-0.509,0.238 -1.764,0.614 -2.574,-0.748c-0.163,-0.273 -0.663,-0.939 -1.359,-0.928c-0.74,0.011 -0.297,0.427 0.011,0.6c0.378,0.212 0.81,1.018 0.906,1.28c0.184,0.507 0.751,1.483 2.971,1.064c0,0.759 0.011,1.473 0.011,1.688l4.397,-0Z" style="fill:#fff;"/></svg>