<?xml version="1.0" encoding="UTF-8" standalone="no"?><!DOCTYPE svg PUBLIC "-//W3C//DTD SVG 1.1//EN" "http://www.w3.org/Graphics/SVG/1.1/DTD/svg11.dtd"><svg width="100%" height="100%" viewBox="0 0 18 18" version="1.1" xmlns="http://www.w3.org/2000/svg"  xml:space="preserve" style="fill-rule:evenodd;clip-rule:evenodd;stroke-linejoin:round;stroke-miterlimit:2;"><path id="linked_in_icon" d="M18,1.405l0,15.19c0,0.776 -0.629,1.405 -1.405,1.405l-15.19,0c-0.776,0 -1.405,-0.629 -1.405,-1.405l0,-15.19c0,-0.776 0.629,-1.405 1.405,-1.405l15.19,0c0.776,0 1.405,0.629 1.405,1.405Zm-8.314,9.277l0.007,0.015c0,-0 -0.041,-0.776 0.3,-1.229c0.383,-0.51 0.934,-0.641 1.495,-0.592c1.101,0.097 1.197,1.26 1.207,1.475c0.01,0.211 0.002,2.967 -0.011,4.958l2.678,0.031c0,-0 0.011,-4.521 -0.109,-6.008c-0.128,-1.581 -0.952,-2.298 -1.729,-2.551c-0.828,-0.271 -1.316,-0.252 -1.879,-0.194c-0.489,0.05 -0.915,0.174 -1.457,0.642c-0.179,0.155 -0.441,0.407 -0.63,0.742l-0.007,-1.206l-2.553,0l0,8.596l2.688,0l0,-4.679Zm-5.711,-8.186c-0.849,-0 -1.539,0.689 -1.539,1.538c0,0.85 0.69,1.539 1.539,1.539c0.849,0 1.538,-0.689 1.538,-1.539c0,-0.849 -0.689,-1.538 -1.538,-1.538Zm-1.327,4.264l-0,8.586l2.666,-0l0,-8.586l-2.666,-0Z" style="fill:#fff;"/></svg>