<?xml version="1.0" encoding="UTF-8" standalone="no"?><!DOCTYPE svg PUBLIC "-//W3C//DTD SVG 1.1//EN" "http://www.w3.org/Graphics/SVG/1.1/DTD/svg11.dtd"><svg width="100%" height="100%" viewBox="0 0 18 18" version="1.1" xmlns="http://www.w3.org/2000/svg"  xml:space="preserve"  style="fill-rule:evenodd;clip-rule:evenodd;stroke-linejoin:round;stroke-miterlimit:2;"><path id="mail_icon" d="M18,1.405l0,15.19c0,0.776 -0.629,1.405 -1.405,1.405l-15.19,0c-0.776,0 -1.405,-0.629 -1.405,-1.405l0,-15.19c0,-0.776 0.629,-1.405 1.405,-1.405l15.19,0c0.776,0 1.405,0.629 1.405,1.405Zm-7.649,10.631c0.09,0.134 0.202,0.25 0.336,0.346c0.136,0.099 0.3,0.178 0.492,0.236c0.18,0.055 0.39,0.084 0.628,0.084c0.481,-0 0.928,-0.106 1.34,-0.315c0.409,-0.208 0.764,-0.504 1.062,-0.891c0.29,-0.375 0.519,-0.83 0.683,-1.366c0.161,-0.522 0.243,-1.11 0.243,-1.764c0,-0.853 -0.153,-1.629 -0.456,-2.33c-0.305,-0.704 -0.73,-1.308 -1.276,-1.813c-0.543,-0.502 -1.189,-0.891 -1.94,-1.166c-0.742,-0.27 -1.555,-0.407 -2.439,-0.407c-0.963,-0 -1.834,0.158 -2.615,0.469c-0.79,0.316 -1.463,0.763 -2.021,1.34c-0.556,0.576 -0.986,1.272 -1.289,2.09c-0.298,0.807 -0.449,1.704 -0.449,2.692c0,0.681 0.081,1.308 0.24,1.882c0.161,0.578 0.387,1.099 0.676,1.564c0.29,0.467 0.633,0.875 1.027,1.225c0.392,0.349 0.827,0.641 1.305,0.876c0.473,0.233 0.981,0.409 1.522,0.527c0.537,0.117 1.094,0.176 1.671,0.176c0.394,-0 0.781,-0.019 1.159,-0.057c0.377,-0.037 0.735,-0.088 1.072,-0.151c0.34,-0.064 0.653,-0.137 0.939,-0.22c0.288,-0.083 0.539,-0.168 0.754,-0.254c0.133,-0.053 0.22,-0.182 0.22,-0.325l-0,-0.922c-0,-0.118 -0.06,-0.228 -0.158,-0.293c-0.098,-0.065 -0.223,-0.076 -0.331,-0.029c-0.19,0.082 -0.409,0.161 -0.657,0.236c-0.252,0.077 -0.53,0.146 -0.832,0.207c-0.305,0.062 -0.631,0.112 -0.98,0.149c-0.348,0.038 -0.714,0.056 -1.097,0.056c-0.794,0 -1.49,-0.115 -2.086,-0.351c-0.583,-0.231 -1.071,-0.551 -1.461,-0.964c-0.39,-0.414 -0.682,-0.905 -0.877,-1.473c-0.2,-0.583 -0.299,-1.223 -0.299,-1.92c0,-0.439 0.039,-0.866 0.117,-1.283c0.077,-0.411 0.194,-0.8 0.352,-1.166c0.155,-0.361 0.354,-0.694 0.595,-0.998c0.238,-0.298 0.522,-0.554 0.853,-0.768c0.335,-0.216 0.718,-0.385 1.147,-0.507c0.437,-0.124 0.926,-0.185 1.467,-0.185c0.608,-0 1.179,0.09 1.711,0.272c0.521,0.178 0.979,0.441 1.371,0.791c0.389,0.348 0.695,0.779 0.919,1.293c0.228,0.523 0.339,1.127 0.339,1.812c-0,0.383 -0.039,0.744 -0.118,1.084c-0.076,0.33 -0.181,0.619 -0.317,0.867c-0.125,0.226 -0.272,0.407 -0.446,0.539c-0.145,0.111 -0.304,0.168 -0.478,0.168c-0.036,0 -0.069,-0.002 -0.098,-0.008c-0.01,-0.002 -0.024,-0.007 -0.032,-0.01c-0.041,-0.07 -0.047,-0.18 -0.047,-0.322l0,-2.673c0,-0.398 -0.058,-0.76 -0.173,-1.087c-0.121,-0.345 -0.308,-0.638 -0.559,-0.88c-0.245,-0.238 -0.553,-0.425 -0.926,-0.557c-0.354,-0.126 -0.772,-0.191 -1.255,-0.191c-0.194,-0 -0.388,0.009 -0.582,0.029c-0.195,0.019 -0.38,0.047 -0.556,0.084c-0.177,0.037 -0.345,0.081 -0.502,0.133c-0.162,0.053 -0.306,0.11 -0.432,0.171c-0.122,0.058 -0.199,0.181 -0.199,0.316l0,0.888c0,0.115 0.057,0.223 0.151,0.288c0.095,0.066 0.216,0.08 0.324,0.039c0.27,-0.103 0.54,-0.183 0.813,-0.241c0.266,-0.056 0.551,-0.084 0.853,-0.084c0.262,-0 0.481,0.028 0.657,0.091c0.149,0.055 0.272,0.129 0.364,0.229c0.091,0.1 0.155,0.22 0.194,0.36c0.04,0.143 0.062,0.301 0.067,0.472c-0.088,-0.025 -0.18,-0.049 -0.273,-0.072c-0.267,-0.065 -0.589,-0.099 -0.968,-0.099c-0.395,0 -0.756,0.055 -1.082,0.161c-0.341,0.111 -0.631,0.27 -0.874,0.476c-0.249,0.211 -0.443,0.468 -0.581,0.771c-0.135,0.298 -0.206,0.636 -0.206,1.013c0,0.353 0.063,0.668 0.183,0.948c0.122,0.285 0.292,0.529 0.509,0.733c0.216,0.203 0.474,0.359 0.774,0.467c0.289,0.104 0.605,0.158 0.949,0.158c0.268,-0 0.515,-0.029 0.741,-0.086c0.228,-0.057 0.435,-0.134 0.622,-0.23c0.189,-0.097 0.356,-0.207 0.503,-0.33l0.023,-0.02Zm-0.318,-2.303l-0,0.747c-0.067,0.061 -0.139,0.121 -0.215,0.18c-0.112,0.087 -0.232,0.163 -0.36,0.228c-0.126,0.065 -0.261,0.116 -0.403,0.155c-0.135,0.038 -0.273,0.056 -0.414,0.056c-0.121,0 -0.235,-0.016 -0.341,-0.049c-0.09,-0.028 -0.169,-0.07 -0.235,-0.128c-0.065,-0.056 -0.116,-0.126 -0.153,-0.209c-0.04,-0.089 -0.057,-0.195 -0.057,-0.317c-0,-0.267 0.07,-0.473 0.242,-0.602c0.202,-0.152 0.485,-0.216 0.843,-0.216c0.149,-0 0.285,0.007 0.409,0.021c0.126,0.015 0.241,0.033 0.346,0.054c0.106,0.021 0.206,0.044 0.301,0.07l0.037,0.01Z" style="fill:#fff;"/></svg>