<?xml version="1.0" encoding="UTF-8" standalone="no"?><!DOCTYPE svg PUBLIC "-//W3C//DTD SVG 1.1//EN" "http://www.w3.org/Graphics/SVG/1.1/DTD/svg11.dtd"><svg width="100%" height="100%" viewBox="0 0 18 18" version="1.1" xmlns="http://www.w3.org/2000/svg"  xml:space="preserve"  style="fill-rule:evenodd;clip-rule:evenodd;stroke-linejoin:round;stroke-miterlimit:2;"><path id="mail_icon" d="M18,1.405l0,15.19c0,0.776 -0.629,1.405 -1.405,1.405l-15.19,0c-0.776,0 -1.405,-0.629 -1.405,-1.405l0,-15.19c0,-0.776 0.629,-1.405 1.405,-1.405l15.19,0c0.776,0 1.405,0.629 1.405,1.405Zm-1.435,2.821c-0.206,-0.583 -0.762,-1.001 -1.415,-1.001l-12.3,-0c-0.653,-0 -1.209,0.418 -1.415,1.001c-0.055,0.156 -0.085,0.324 -0.085,0.499l-0,8.55c-0,0.828 0.672,1.5 1.5,1.5l12.3,0c0.828,0 1.5,-0.672 1.5,-1.5l0,-8.55c0,-0.175 -0.03,-0.343 -0.085,-0.499Zm-12.892,0.332l10.654,-0l-5.176,4.6c-0.086,0.077 -0.216,0.077 -0.302,0l-5.176,-4.6Zm-1.149,0.761l5.439,4.835c0.592,0.526 1.482,0.526 2.074,0l5.439,-4.835l0,7.956c0,0.18 -0.146,0.326 -0.326,0.326l-12.3,0c-0.18,0 -0.326,-0.146 -0.326,-0.326l-0,-7.956Z" style="fill:#fff;"/></svg>