<?xml version="1.0" encoding="UTF-8" standalone="no"?><!DOCTYPE svg PUBLIC "-//W3C//DTD SVG 1.1//EN" "http://www.w3.org/Graphics/SVG/1.1/DTD/svg11.dtd"><svg width="100%" height="100%" viewBox="0 0 18 14" version="1.1" xmlns="http://www.w3.org/2000/svg" xml:space="preserve" style="fill-rule:evenodd;clip-rule:evenodd;stroke-linejoin:round;stroke-miterlimit:2;"><path id="mail_icon_parts" d="M17.908,1.082c0.06,0.168 0.092,0.349 0.092,0.538l-0,10.26c-0,0.894 -0.726,1.62 -1.62,1.62l-14.76,0c-0.894,0 -1.62,-0.726 -1.62,-1.62l-0,-10.26c-0,-0.189 0.032,-0.37 0.092,-0.538c0.222,-0.63 0.823,-1.082 1.528,-1.082l14.76,-0c0.705,-0 1.306,0.452 1.528,1.082Zm-16.859,0.85l-0,9.948c-0,0.315 0.256,0.571 0.571,0.571l14.76,0c0.315,0 0.571,-0.256 0.571,-0.571l0,-9.948l-6.827,6.069c-0.641,0.57 -1.607,0.57 -2.248,-0l-6.827,-6.069Zm1.086,-0.693l6.564,5.835c0.172,0.153 0.43,0.153 0.602,0l6.564,-5.835l-13.73,0Z" style="fill:#fff;"/></svg>